<svg width="44" height="44" viewBox="0 0 44 44" fill="none" xmlns="http://www.w3.org/2000/svg">
<rect width="44" height="44" fill="#1E1E1E"/>
<g id="StyleGuide">
<rect width="1280" height="1209" transform="translate(-60 -801)" fill="#373737"/>
<g id="Component 12">
<g id="Property 1=hover">
<rect id="Rectangle 2" x="-38" y="-41" width="645" height="125" rx="36" fill="#D9D9D9"/>
<g id="Group 2">
<path id="Ellipse 9" d="M44 22C44 34.1503 34.1503 44 22 44C9.84974 44 0 34.1503 0 22C0 9.84974 9.84974 0 22 0C34.1503 0 44 9.84974 44 22Z" fill="#7E7E7E"/>
<g id="Group 1">
<rect id="Rectangle 5" x="13.5342" y="12" width="25" height="4" rx="2" transform="rotate(37.8735 13.5342 12)" fill="#D9D9D9"/>
<rect id="Rectangle 6" x="11" y="27.2028" width="25" height="4" rx="2" transform="rotate(-37.1265 11 27.2028)" fill="#D9D9D9"/>
</g>
</g>
</g>
<rect x="-57.5" y="-60.5" width="684" height="454" rx="4.5" stroke="#9747FF" stroke-dasharray="10 5"/>
</g>
</g>
</svg>
